<svg xmlns="http://www.w3.org/2000/svg" width="336.233" height="858.85" viewBox="1584.8 354.1 336.233 858.85"><path d="M1921 354.116a132.709 132.709 0 0 0-65.34 31.741 135.133 135.133 0 0 0-3.264 3.014 135.478 135.478 0 0 0-40.905 81.51 140.964 140.964 0 0 0-.915 10.297 102.55 102.55 0 0 1-1.29 9.98c-4.098 22.876-16.036 45.751-35.374 64.208a123.44 123.44 0 0 1-35.465 23.79c-8.062 3.545-16.329 6.098-24.595 7.649a107.028 107.028 0 0 1-2.882.5c-31.33 2.057-61.255 14.104-84.755 36.533a136.204 136.204 0 0 0-41.381 99.708c0 30.38 9.085 61.655 27.13 89.395a177.264 177.264 0 0 0 20.385 25.731 174.45 174.45 0 0 0 48.699 35.976 167.014 167.014 0 0 0 21.022 8.695c26.51 10.241 53.753 26.002 79.757 46.746a371.308 371.308 0 0 1 36.981 33.895c53.886 56.454 84.144 122.634 85.879 176.818a153.9 153.9 0 0 1 .075 3.748l.011.01a173.179 173.179 0 0 0 .55 9.565 179.595 179.595 0 0 0 15.677 59.32v-858.83Z" fill="rgba(244, 250, 254, 1)" fill-rule="evenodd" data-name="Bg. Shape"/></svg>