<svg xmlns="http://www.w3.org/2000/svg" width="278.633" height="966.083" viewBox="1 1.267 278.633 966.083"><path d="M138.05 254.986a107.134 107.134 0 0 0 56.484 50.8 126.214 126.214 0 0 1 76.377 69.77c29.275 70.89-17.744 156.394-103.543 191.824a206.983 206.983 0 0 1-23.513 8.101 202.646 202.646 0 0 1-9.736 2.451c-35.917 9.626-69.018 38.127-83.151 75.519a109.042 109.042 0 0 0-4.166 13.603c-2.678 11.397-3.25 22.497-1.927 32.88a74.177 74.177 0 0 0 17.737 40.124l-.017.016a150.22 150.22 0 0 1 9.683 11.945c27.393 37.61 34.15 84.694 11.335 127.604-10.401 19.561-25.057 37.333-42.274 52.493a345.742 345.742 0 0 0-2.762 2.461C29.16 943.052 16.991 954.693 1 967.337V1.29c59.923 2.469 111.108 30.96 131.12 79.417 7.805 18.903 10.103 39 7.587 59.099a141.157 141.157 0 0 1-9.3 35.232 107.306 107.306 0 0 0-4.428 30.487c0 13.689 2.63 27.619 8.186 41.078a109.226 109.226 0 0 0 3.884 8.384Z" fill="rgba(244, 250, 254, 1)" fill-rule="evenodd" data-name="Bg. Shape"/></svg>